<svg width="1200" height="825" viewBox="0 0 1200 825" fill="none" xmlns="/gallery/cctvhome.jpg">
  <defs>
    <linearGradient id="bg" x1="0" y1="0" x2="1" y2="1">
      <stop offset="0" stop-color="#FFF7ED"/>
      <stop offset="1" stop-color="#FFFFFF"/>
    </linearGradient>
    <linearGradient id="shine" x1="0" y1="0" x2="1" y2="0">
      <stop offset="0" stop-color="#F97316" stop-opacity="0.08"/>
      <stop offset="0.5" stop-color="#F97316" stop-opacity="0.20"/>
      <stop offset="1" stop-color="#F97316" stop-opacity="0.08"/>
    </linearGradient>
  </defs>
  <rect width="1200" height="825" rx="48" fill="url(#bg)"/>
  <rect x="60" y="70" width="1080" height="685" rx="36" fill="#FAFAFA" stroke="#E4E4E7" stroke-width="4"/>
  <rect x="120" y="140" width="560" height="360" rx="28" fill="#FFFFFF" stroke="#E4E4E7" stroke-width="4"/>
  <rect x="740" y="140" width="340" height="160" rx="28" fill="#FFFFFF" stroke="#E4E4E7" stroke-width="4"/>
  <rect x="740" y="330" width="340" height="170" rx="28" fill="#FFFFFF" stroke="#E4E4E7" stroke-width="4"/>
  <rect x="160" y="180" width="480" height="260" rx="20" fill="#FFF7ED"/>
  <path d="M180 220H620" stroke="#F97316" stroke-width="10" stroke-linecap="round" opacity="0.5"/>
  <path d="M180 270H620" stroke="#0A0A0A" stroke-width="10" stroke-linecap="round" opacity="0.12"/>
  <path d="M180 320H540" stroke="#0A0A0A" stroke-width="10" stroke-linecap="round" opacity="0.12"/>
  <g>
    <circle cx="850" cy="210" r="44" fill="#F97316"/>
    <path d="M850 176V244" stroke="#FFFFFF" stroke-width="10" stroke-linecap="round" opacity="0.95"/>
    <path d="M816 210H884" stroke="#FFFFFF" stroke-width="10" stroke-linecap="round" opacity="0.95"/>
  </g>
  <rect x="780" y="360" width="280" height="110" rx="20" fill="url(#shine)"/>
  <path d="M120 570H1080" stroke="#E4E4E7" stroke-width="4"/>
  <text x="120" y="640" fill="#0A0A0A" font-size="44" font-family="Arial" font-weight="700">Solar Rooftop Installation</text>
  <text x="120" y="690" fill="#52525B" font-size="28" font-family="Arial" font-weight="500">Clean wiring " Premium finishing " Local support</text>
</svg>
