<svg width="1200" height="825" viewBox="0 0 1200 825" fill="none" xmlns="http://www.w3.org/2000/svg">
  <defs>
    <linearGradient id="bg3" x1="0" y1="0" x2="1" y2="1">
      <stop offset="0" stop-color="#FFF7ED"/>
      <stop offset="1" stop-color="#F4F4F5"/>
    </linearGradient>
  </defs>
  <rect width="1200" height="825" rx="48" fill="url(#bg3)"/>
  <rect x="60" y="70" width="1080" height="685" rx="36" fill="#FFFFFF" stroke="#E4E4E7" stroke-width="4"/>
  <rect x="120" y="140" width="640" height="520" rx="28" fill="#FAFAFA" stroke="#E4E4E7" stroke-width="4"/>
  <rect x="800" y="140" width="340" height="520" rx="28" fill="#FAFAFA" stroke="#E4E4E7" stroke-width="4"/>
  <rect x="200" y="210" width="480" height="380" rx="30" fill="#FFFFFF" stroke="#E4E4E7" stroke-width="4"/>
  <rect x="240" y="255" width="400" height="120" rx="24" fill="#F97316"/>
  <text x="270" y="330" fill="#FFFFFF" font-size="44" font-family="Arial" font-weight="700">RO</text>
  <path d="M270 420H610" stroke="#0A0A0A" stroke-width="10" stroke-linecap="round" opacity="0.12"/>
  <path d="M270 465H560" stroke="#0A0A0A" stroke-width="10" stroke-linecap="round" opacity="0.12"/>
  <circle cx="970" cy="300" r="70" fill="#F97316" opacity="0.92"/>
  <path d="M950 300C950 288 960 278 972 278C984 278 994 288 994 300C994 312 984 322 972 322C960 322 950 312 950 300Z" fill="#FFFFFF"/>
  <path d="M972 320V360" stroke="#FFFFFF" stroke-width="10" stroke-linecap="round"/>
  <text x="120" y="720" fill="#0A0A0A" font-size="44" font-family="Arial" font-weight="700">RO Purifier Installation</text>
  <text x="120" y="770" fill="#52525B" font-size="28" font-family="Arial" font-weight="500">Safe water " Neat fitting " Service support</text>
</svg>
