<svg width="1200" height="825" viewBox="0 0 1200 825" fill="none" xmlns="http://www.w3.org/2000/svg">
  <defs>
    <linearGradient id="bg4" x1="0" y1="0" x2="1" y2="1">
      <stop offset="0" stop-color="#FFFFFF"/>
      <stop offset="1" stop-color="#FFF7ED"/>
    </linearGradient>
  </defs>
  <rect width="1200" height="825" rx="48" fill="url(#bg4)"/>
  <rect x="60" y="70" width="1080" height="685" rx="36" fill="#FFFFFF" stroke="#E4E4E7" stroke-width="4"/>
  <rect x="120" y="140" width="700" height="520" rx="28" fill="#FAFAFA" stroke="#E4E4E7" stroke-width="4"/>
  <rect x="860" y="140" width="280" height="520" rx="28" fill="#FAFAFA" stroke="#E4E4E7" stroke-width="4"/>
  <rect x="170" y="200" width="600" height="420" rx="28" fill="#FFFFFF" stroke="#E4E4E7" stroke-width="4"/>
  <rect x="220" y="250" width="500" height="80" rx="20" fill="#F97316"/>
  <text x="250" y="305" fill="#FFFFFF" font-size="36" font-family="Arial" font-weight="700">CCTV Monitoring</text>
  <path d="M240 380H700" stroke="#0A0A0A" stroke-width="10" stroke-linecap="round" opacity="0.12"/>
  <path d="M240 430H650" stroke="#0A0A0A" stroke-width="10" stroke-linecap="round" opacity="0.12"/>
  <path d="M240 480H620" stroke="#0A0A0A" stroke-width="10" stroke-linecap="round" opacity="0.12"/>
  <g>
    <rect x="910" y="220" width="180" height="180" rx="30" fill="#FFF7ED" stroke="#FED7AA" stroke-width="4"/>
    <circle cx="1000" cy="305" r="52" fill="#F97316"/>
    <circle cx="1000" cy="305" r="18" fill="#FFFFFF"/>
  </g>
  <text x="120" y="720" fill="#0A0A0A" font-size="44" font-family="Arial" font-weight="700">CCTV Camera Installation</text>
  <text x="120" y="770" fill="#52525B" font-size="28" font-family="Arial" font-weight="500">Neat wiring " Mobile viewing " Reliable setup</text>
</svg>
